<?xml version="1.0" encoding="utf-8" ?>
<svg xmlns="http://www.w3.org/2000/svg" xmlns:xlink="http://www.w3.org/1999/xlink" width="1530" height="1530">
	<path fill="#413679" transform="scale(2.98839 2.98839)" d="M169.303 424.055C181.07 424.684 192.769 443.772 182.155 452.162C167.131 459.608 162.357 426.141 169.303 424.055Z"/>
	<path fill="#7F8DE2" transform="scale(2.98839 2.98839)" d="M182.155 445.27C175.281 457.473 169.994 436.353 171.426 429.283C172.021 429.261 172.683 429.802 173.206 430.097C177.947 432.82 181.909 439.724 182.155 445.27Z"/>
	<path fill="#A1C3EB" transform="scale(2.98839 2.98839)" d="M173.206 430.097C177.947 432.82 181.909 439.724 182.155 445.27C178.195 443.662 170.906 434.502 173.206 430.097Z"/>
	<path fill="#413679" transform="scale(2.98839 2.98839)" d="M125.685 382.201C129.468 382.133 132.489 383.257 134.83 386.418C132.019 395.657 126.713 404.606 115.943 404.901C109.36 404.235 103.641 397.124 108.19 390.885C111.868 385.841 119.768 383.076 125.685 382.201Z"/>
	<path fill="#7F8DE2" transform="scale(2.98839 2.98839)" d="M127.718 387.318C132.627 389.692 120.502 403.711 114.267 399.744C116.56 397.136 127.234 388.918 127.718 387.318Z"/>
	<path fill="#A1C3EB" transform="scale(2.98839 2.98839)" d="M114.267 399.744C104.929 392.259 121.874 386.856 127.718 387.318C127.234 388.918 116.56 397.136 114.267 399.744Z"/>
	<path fill="#413679" transform="scale(2.98839 2.98839)" d="M129.632 411.307C150.649 410.27 134.679 433.464 121.012 433.799C113.318 433.781 106.927 427.412 111.999 420.302C115.42 415.504 124.093 412.352 129.632 411.307Z"/>
	<path fill="#A1C3EB" transform="scale(2.98839 2.98839)" d="M116.824 428.156C109.64 421.954 126.711 416.261 131.27 416.396C130.85 420.386 120.019 425.908 116.824 428.156Z"/>
	<path fill="#7F8DE2" transform="scale(2.98839 2.98839)" d="M131.27 416.396C140.82 417.253 124.165 434.467 116.824 428.156C120.019 425.908 130.85 420.386 131.27 416.396Z"/>
	<path fill="#42685C" transform="scale(2.98839 2.98839)" d="M340.751 104.625C351.717 76.7716 384.362 52.2656 411.043 40.8127C413.909 39.5822 419.105 39.5393 416.409 43.1917C415.192 44.842 404.588 49.2797 401.973 50.6831C379.52 62.7313 354.64 82.9063 344.5 107.014C348.004 108.536 351.494 110.126 355.038 111.548C354.283 112.874 353.33 114.14 352.516 115.447C352.045 114.762 345.908 112.275 344.5 111.548C343.99 117.443 345.173 123.282 347.244 128.815C349.038 129.551 350.926 130.23 352.516 131.361C342.257 131.766 346.308 112.866 341.095 115.977C339.367 119.504 343.009 127.966 343.782 131.671C344.584 135.52 345.006 139.488 345.772 143.366L345.432 143.664C344.643 142.341 343.948 136.592 343.601 134.723C343.818 132.785 344.019 131.634 342.133 130.513C337.988 133.924 336.034 140.232 334.901 145.278C334.479 140.15 332.777 135.214 330.75 130.513C329.236 131.897 328.146 133.69 328.025 135.764C327.552 136.908 327.296 138.124 326.826 139.253C325.005 142.293 323.337 145.606 322.736 149.126L322.489 150.517C317.401 156.717 310.79 186.86 305.042 182.205C304.037 179.973 315.016 156.742 316.561 151.79C319.063 146.556 321.28 141.178 323.358 135.764C324.477 134.15 325.808 132.618 325.015 130.513C325.062 130.498 334.139 114.828 336.512 111.548C333.58 111.627 323.164 112.776 321.231 114.559C319.833 113.234 316.723 114.079 315.097 114.559C301.634 116.146 274.115 120.253 276.083 114.166C278.423 111.854 287.938 112.95 291.521 112.908C299.811 111.618 308.267 111.554 316.561 110.121C318.283 110.418 321.513 109.808 322.489 108.226L322.688 108.463C324.989 109.137 332.736 107.208 335.88 107.014C334.456 105.504 332.671 103.896 330.75 103.075C332.173 102.025 332.936 100.505 333.778 98.9948C336.22 100.701 338.501 102.674 340.751 104.625ZM339.663 114.559C337.948 117.616 330.884 127.911 330.75 130.513C332.777 135.214 334.479 140.15 334.901 145.278C336.034 140.232 337.988 133.924 342.133 130.513C342.689 128.299 339.808 118.413 339.663 114.559Z"/>
	<path fill="#413679" transform="scale(2.98839 2.98839)" d="M287.748 35.2678C316.909 39.6656 335.846 70.7097 333.778 98.9948C332.936 100.505 332.173 102.025 330.75 103.075C311.839 106.983 290.463 84.5197 284.696 68.3291C282.063 60.9359 277.289 38.6842 287.748 35.2678ZM321.231 90.2564C321.282 92.1576 319.973 94.8328 317.976 95.1387L318.101 94.9653L317.052 95.0524C316.777 95.4182 316.698 95.5676 316.561 95.9831C320.167 97.9036 323.992 98.6725 328.025 98.9948C326.07 95.9676 323.411 93.1655 321.231 90.2564ZM323.975 87.3754C325.588 89.2135 327.231 91.033 328.767 92.9364L328.767 89.1551C328.423 87.8901 327.53 86.7577 326.826 85.6622C325.804 86.0696 324.869 86.7442 323.975 87.3754Z"/>
	<path fill="#9CC265" transform="scale(2.98839 2.98839)" d="M298.188 63.8969C306.823 71.8598 312.759 82.2722 321.231 90.2564C321.282 92.1576 319.973 94.8328 317.976 95.1387L318.101 94.9653L317.052 95.0524C316.777 95.4182 316.698 95.5676 316.561 95.9831C307.129 93.4638 297.925 83.4021 293.375 75.082C294.51 73.0189 297.326 66.1489 298.188 63.8969Z"/>
	<path fill="#BDCF74" transform="scale(2.98839 2.98839)" d="M287.748 39.8768C293.925 41.2817 300.638 45.194 305.886 48.6698C304.934 53.1704 302.791 57.7673 300.311 61.6313C299.366 62.2989 298.786 62.9106 298.188 63.8969C297.326 66.1489 294.51 73.0189 293.375 75.082C287.369 65.5335 283.885 50.5813 287.748 39.8768Z"/>
	<path fill="#9CC265" transform="scale(2.98839 2.98839)" d="M305.886 48.6698C318.518 58.0734 328.168 73.0998 328.767 89.1551C328.423 87.8901 327.53 86.7577 326.826 85.6622C325.804 86.0696 324.869 86.7442 323.975 87.3754C318.556 81.8554 305.724 64.4787 300.311 61.6313C302.791 57.7673 304.934 53.1704 305.886 48.6698Z"/>
	<path fill="#413679" transform="scale(2.98839 2.98839)" d="M355.038 111.548C357.208 107.603 364.209 106.184 368.288 105.319C391.418 100.409 418.289 116.588 422.996 140.253C425.007 150.361 415.859 151.397 407.153 152.232C386.057 154.256 355.129 137.492 352.516 115.447C353.33 114.14 354.283 112.874 355.038 111.548ZM363.649 111.548L360.071 112.908C361.245 113.709 362.425 114.763 363.649 115.447C364.2 114.245 364.5 112.651 363.649 111.548Z"/>
	<path fill="#BDCF74" transform="scale(2.98839 2.98839)" d="M356.532 116.131C358.384 117.278 360.365 118.249 362.25 119.352L361.361 119.402C361.171 120.687 362.123 122.805 360.071 122.705C358.726 120.643 357.53 118.378 356.532 116.131Z"/>
	<path fill="#9CC265" transform="scale(2.98839 2.98839)" d="M362.25 119.352C367.439 122.198 393.306 138.759 396.215 132.343C398.752 134.713 406.154 136.623 409.536 138.03C412.515 139.269 415.098 141.247 418.01 142.421L418.657 142.309C420.382 148.819 397.555 147.553 393.669 146.688C379.294 143.488 367.917 135.059 360.071 122.705C362.123 122.805 361.171 120.687 361.361 119.402L362.25 119.352Z"/>
	<path fill="#BDCF74" transform="scale(2.98839 2.98839)" d="M363.649 111.548C386.526 103.283 414.253 118.813 418.657 142.309L418.01 142.421C415.098 141.247 412.515 139.269 409.536 138.03C406.154 136.623 398.752 134.713 396.215 132.343C395.468 131.261 367.474 117.522 363.649 115.447C364.2 114.245 364.5 112.651 363.649 111.548Z"/>
	<path fill="#413679" transform="scale(2.98839 2.98839)" d="M321.231 114.559C304.18 134.065 274.299 141.29 251.835 126.894C246.883 123.72 239.452 117.878 238.266 111.749C236.257 101.359 260.891 93.1532 268.08 91.8819C288.828 88.2128 306.063 96.6641 322.489 108.226C321.513 109.808 318.283 110.418 316.561 110.121C308.267 111.554 299.811 111.618 291.521 112.908C287.938 112.95 278.423 111.854 276.083 114.166C274.115 120.253 301.634 116.146 315.097 114.559C316.723 114.079 319.833 113.234 321.231 114.559Z"/>
	<path fill="#BDCF74" transform="scale(2.98839 2.98839)" d="M242.551 109.297C261.809 90.2397 296.614 93.6999 316.561 110.121C308.267 111.554 299.811 111.618 291.521 112.908C288.74 112.765 286.64 111.515 283.96 110.968C273.652 108.864 262.526 107.433 251.99 108.393C248.967 108.669 245.546 109.595 242.551 109.297Z"/>
	<path fill="#9CC265" transform="scale(2.98839 2.98839)" d="M242.551 109.297C245.546 109.595 248.967 108.669 251.99 108.393C262.526 107.433 273.652 108.864 283.96 110.968C286.64 111.515 288.74 112.765 291.521 112.908C287.938 112.95 278.423 111.854 276.083 114.166C274.115 120.253 301.634 116.146 315.097 114.559C294.396 132.409 262.927 137.26 244.645 114.329C243.553 112.959 241.682 111.176 242.551 109.297Z"/>
	<path fill="#413679" transform="scale(2.98839 2.98839)" d="M196.676 151.79C195.3 143.912 194.663 137.71 197.35 130.021C207.525 100.917 225.456 119.638 229.177 140.531C237.956 134.19 254.101 128.309 260.629 140.264C264.869 148.03 259.64 156.328 257.397 163.742L257.277 164.145C258.565 165.438 259.788 166.649 261.243 167.759C270.965 151.417 286.142 136.482 293.375 164.145C297.731 149.256 309.998 135.009 325.015 130.513C325.808 132.618 324.477 134.15 323.358 135.764C321.28 141.178 319.063 146.556 316.561 151.79C315.016 156.742 304.037 179.973 305.042 182.205C310.79 186.86 317.401 156.717 322.489 150.517L322.736 149.126C323.337 145.606 325.005 142.293 326.826 139.253C327.296 138.124 327.552 136.908 328.025 135.764C328.146 133.69 329.236 131.897 330.75 130.513C332.777 135.214 334.479 140.15 334.901 145.278C336.034 140.232 337.988 133.924 342.133 130.513C344.019 131.634 343.818 132.785 343.601 134.723C343.948 136.592 344.643 142.341 345.432 143.664L345.772 143.366C345.006 139.488 344.584 135.52 343.782 131.671C343.009 127.966 339.367 119.504 341.095 115.977C346.308 112.866 342.257 131.766 352.516 131.361C379.479 140.693 384.872 199.424 367.85 205.543C348.536 201.254 338.171 184.698 333.778 166.278C331.919 179.049 323.704 192.862 314.171 201.396C317.086 204.9 320.78 208.97 321.716 213.567C323.255 221.127 303.254 226.054 298.188 226.959C307.604 230.598 320.118 240.174 326.826 247.739C333.989 242.207 339.159 240.913 348.065 240.585C344.387 235.286 341.229 230.042 340.479 223.496C339.164 212.027 343.236 205.757 355.152 208.562C363.358 210.494 366.089 213.867 372.056 219.293C374.523 211.031 383.744 201.783 391.913 199.573C396.992 200.47 399.514 204.764 401.402 209.253C405.898 219.947 404.263 226.206 400.06 236.378C412.774 233.733 440.207 235.963 427.988 255.359C422.013 264.843 412.19 269.01 401.714 271.402C415.369 282.504 415.949 311.833 399.584 309.466C388.832 307.911 383.259 299.768 377.364 291.843C372.861 299.573 368.192 305.276 360.071 309.342C360.773 310.972 361.505 312.587 362.25 314.198C369.944 313.274 378.635 314.091 385.788 317.174C394.705 321.019 404.637 334.629 393.235 338.065C384.131 340.809 373.546 326.241 364.894 321.708C367.791 329.237 370.727 336.859 372.76 344.68C381.683 347.96 386.475 365.557 380.353 373.111C369.675 386.284 352.47 364.999 369.329 345.728C365.845 339.231 364.986 331.214 360.927 325.05C359.899 331.656 359.172 350.241 350.676 352.372C346.733 353.36 342.866 350.144 342.209 346.349C340.931 338.964 346.23 330.844 350.119 325.05C349.746 316.999 344.957 303.22 340.751 296.378C340.511 304.164 340.049 311.374 333.05 316.424L332.04 320.276C338.218 326.081 341.236 341.608 335.114 348.405C324.617 360.06 308.132 338.972 327.528 320.276C327.637 318.977 327.729 317.698 328.025 316.424C317.145 308.324 326.721 291.793 334.901 285.413C332.46 280.828 324.807 269.581 321.231 265.183C323.867 271.41 326.842 276.288 325.186 283.392C324.097 288.064 321.494 291.057 316.561 289.701C315.809 291.901 315.349 294.068 315.097 296.378C326.33 309.338 306.732 338.965 299.507 317.816C296.82 309.95 304.12 297.555 311.565 294.982C311.504 292.471 311.624 289.957 311.565 287.442C306.817 278.499 303.857 262.951 315.097 257.465C311.252 252.849 306.903 248.639 303.03 244.028C304.453 251.359 304.907 259.845 296.878 263.141C296.552 264.764 296.454 266.428 296.307 268.075C302.748 272.423 304.18 283.475 301.989 290.283C296.903 306.089 275.954 297.663 284.849 275.898C286.387 272.134 288.769 269.664 292.526 268.075C292.572 266.43 292.544 264.786 292.526 263.141C284.805 256.109 291.038 243.449 293.375 235.257C290.29 232.526 287.233 229.802 284.248 226.959C288.407 236.648 289.887 249.463 284.789 258.997C280.02 267.919 275.143 266.247 267.592 261.945C267.387 263.489 267.595 265.275 267.592 266.852C277.928 271.981 276.482 280.504 268.536 287.263C261.893 292.913 254.839 294.724 246.502 296.378C253.524 305.167 257.102 314.812 254.655 326.239C262.514 331.257 263.254 337.803 256.609 344.352C248.776 352.07 238.658 354.769 227.929 354.754C235.792 365.166 241.457 373.681 237.05 388.051C229.416 412.945 206.912 389.195 200.734 376.172C197.849 378.75 195.133 381.024 191.818 383.076C193.541 388.595 195.777 394.119 197.079 399.744C214.662 400.148 213.549 438.406 198.338 429.13C191.477 424.946 189.434 409.232 193.644 402.138C191.359 397.557 189.21 390.555 188.22 385.518C183.183 387.314 178.433 389.201 173.206 390.427C179.925 395.4 184.929 406.344 183.541 414.524C181.619 425.85 169.661 420.529 164.517 413.349C163.928 421.761 163.046 430.267 161.182 438.502C160.14 443.109 158.23 447.452 157.666 452.162C157.564 456.441 158.476 460.215 157.025 464.407C150.298 483.844 130.429 477.918 135.166 466.218C137.93 459.391 145.579 452.63 152.289 449.844C155.489 444.634 156.928 438.114 157.666 432.109C152.924 445.094 135.69 453.442 131.27 438.254C132.944 430.551 151.86 417.798 159.063 425.294C159.816 418.325 160.291 411.333 160.989 404.359C157.553 406.824 154.339 409.458 150.142 410.487C133.626 414.536 132.453 390.586 158.568 386.418C140.48 385.702 133.835 379.52 126.769 362.436C119.254 371.858 89.8999 388.987 90.3516 366.914C90.5519 357.13 95.7724 347.207 102.687 340.499C90.4768 336.693 69.1025 318.855 86.8641 308.934C95.3654 304.185 106.237 304.456 115.321 307.096C115.493 304.551 115.914 302.545 116.824 300.157C109.123 295.881 81.3569 285.701 93.9047 273.825C99.5492 268.483 113.349 264.886 121.012 265.183C114.878 256.108 107.208 245.27 110.515 233.692C113.45 223.414 128.065 229.35 134.83 231.468C136.48 229.155 138.027 226.942 140.069 224.948C131.011 219.735 100.269 199.484 122.211 190.307C132.345 186.069 140.772 186.397 150.763 190.517C150.913 178.566 150.62 170.208 158.568 159.854C159.544 142.575 186.315 146.337 196.676 151.79ZM207.407 166.278C209.367 163.258 211.049 160.944 214.662 159.854C215.714 154.111 221.005 143.341 223.192 135.764C222.41 129.691 217.049 121.943 211.29 119.352C206.882 121.164 204.428 125.533 202.678 129.745C196.528 144.553 202.476 153.547 207.407 166.278ZM199.926 217.704C205.59 225.703 206.13 227.733 209.407 236.378C211.302 237.396 212.965 238.61 214.662 239.927C215.701 238.012 216.721 236.083 217.807 234.195C219.478 232.364 221.225 230.513 223.192 228.999C218.541 227.306 216.518 225.005 212.711 222.215C208.817 220.558 204.076 218.475 199.926 217.704ZM326.063 264.192C332.644 272.398 338.446 281.104 344.5 289.701C344.608 288.177 344.822 286.832 345.432 285.413C345.991 280.95 347.114 278.133 350.119 274.725C333.87 272.202 337.004 271.21 326.063 264.192ZM252.435 246.257C249.027 248.5 246.872 251.149 244.481 254.414C244.105 257.321 243.788 260.22 243.54 263.141C246.504 262.656 249.446 262.237 252.435 261.945C253.631 258.963 260.976 243.795 252.435 246.257ZM254.02 223.756C248.805 227.389 244.145 229.493 237.748 229.824C239.299 232.219 241.066 234.513 242.551 236.935C242.76 237.933 243.051 239.029 243.54 239.927C246.712 237.596 250.138 236.731 254.02 236.378C253.896 234.676 254.401 224.162 254.02 223.756ZM170.773 296.378C174.221 301.779 176.7 307.058 176.549 313.637C178.967 314.246 181.337 314.804 183.612 315.856L183.952 315.755C183.856 315.231 183.765 314.714 183.63 314.198C182.278 308.255 182.035 303.686 184.252 297.961C179.664 297.913 175.231 297.509 170.773 296.378ZM298.188 231.468C301.635 235.203 305.435 238.535 308.747 242.408C311.591 245.733 321.191 258.978 323.535 260.783L323.358 260.372C322.327 256.79 322.544 254.629 323.975 251.183C318.749 245.785 305.368 234.783 298.188 231.468ZM215.19 192.16C213.955 200.372 209.174 205.631 202.899 210.65L206.181 210.65C208.387 210.499 210.536 210.28 212.711 209.872C216.455 201.54 217.99 202.242 218.541 192.16L215.19 192.16ZM171.476 348.296C167.359 349.312 163.289 349.801 159.063 350.009C161.093 352.85 162.397 355.77 163.455 359.087L163.869 358.91L164.172 357.76L164.521 357.76C165.033 358.732 165.016 360.018 165.12 361.101C166.364 359.025 171.828 350.123 171.929 348.301L171.476 348.296ZM244.481 314.198C244.485 317.005 244.783 319.812 244.771 322.604L248.839 323.554C251.549 324.105 251.15 322.414 251.139 320.276C250.994 317.461 250.686 314.751 249.963 312.022C249.589 311.984 249.23 311.944 248.861 311.875L248.448 312.082C246.952 312.815 245.348 312.674 244.481 314.198ZM209.407 242.593C208.84 247.15 207.231 249.663 203.799 252.564C205.847 254.037 207.678 255.626 209.407 257.465C209.768 257.925 210.155 258.585 210.65 258.889L210.634 258.618C210.401 254.061 211.683 249.915 212.711 245.541C211.748 244.355 210.817 243.26 209.407 242.593ZM350.119 308.085C351.61 312.604 352.591 317.036 353.46 321.708C354.46 320.978 355.758 320.209 356.532 319.245C356.983 318.298 357.396 317.292 357.988 316.424C356.912 314.359 355.94 312.287 355.038 310.14C353.031 309.772 351.794 309.319 350.119 308.085ZM260.782 254.414C259.52 257.3 258.366 260.184 257.277 263.141C258.432 263.484 259.656 263.769 260.782 264.192C264.103 264.145 262.903 259.819 262.733 257.465C262.102 256.433 261.463 255.414 260.782 254.414ZM238.244 294.982C238.423 296.418 239.533 298.973 239.128 300.157C239.649 301.445 240.218 302.688 240.827 303.935C241.811 302.836 243.561 302.712 244.771 301.805C242.9 298.705 241.199 297.084 238.244 294.982ZM173.206 347.256C173.089 349.558 173.318 351.859 173.206 354.162C174.019 353.781 174.802 353.417 175.661 353.156L177.391 350.852C175.84 349.752 174.535 348.614 173.206 347.256ZM164.517 382.201C162.776 383.912 156.875 386.767 159.063 386.418C161.237 386.587 167.555 387.565 164.517 382.201ZM326.826 139.253C327.441 141.397 328.134 142.666 329.713 140.531C329.252 138.893 328.659 137.342 328.025 135.764C327.552 136.908 327.296 138.124 326.826 139.253ZM165.12 386.418C164.225 389.099 165.077 389.226 167.671 388.967C167.477 387.998 165.956 386.916 165.12 386.418Z"/>
	<path fill="#E7CDEA" transform="scale(2.98839 2.98839)" d="M198.498 212.972C199.02 212.932 199.294 213.01 199.775 213.209L199.685 213.623C198.839 214.261 198.088 214.522 197.079 214.826C196.588 214.842 196.303 214.787 195.835 214.67L195.859 214.313C196.692 213.644 197.501 213.337 198.498 212.972Z"/>
	<path fill="#F1E8F0" transform="scale(2.98839 2.98839)" d="M149.195 309.342C150.551 310.832 151.45 312.377 152.289 314.198L151.339 314.684L150.896 314.428C149.911 312.903 149.634 311.082 149.195 309.342Z"/>
	<path fill="#F1E8F0" transform="scale(2.98839 2.98839)" d="M211.29 214.826L211.416 214.825C211.803 215.402 211.381 216.972 211.29 217.704L208.199 216.509C204.944 215.234 210.168 215.022 211.29 214.826Z"/>
	<path fill="#A47ADA" transform="scale(2.98839 2.98839)" d="M228.508 169.964L228.508 169.964C229.123 172.659 229.923 175.265 230.845 177.87L230.359 178.183C227.207 178.232 228.479 171.962 228.508 169.964Z"/>
	<path fill="#E7CDEA" transform="scale(2.98839 2.98839)" d="M169.797 373.142C170.629 373.842 171.444 374.565 172.349 375.171L172.116 375.627C171.478 376.897 171.491 379.615 169.797 379.076C169.703 377.097 169.548 375.114 169.797 373.142Z"/>
	<path fill="#E7CDEA" transform="scale(2.98839 2.98839)" d="M200.734 359.087C201.219 360.803 200.326 363.358 199.926 365.061C198.72 363.635 199.151 362.642 197.079 362.436C198.15 361.231 199.28 359.822 200.734 359.087Z"/>
	<path fill="#C9A9E1" transform="scale(2.98839 2.98839)" d="M167.671 245.541L169.797 241.891C170.692 244.065 171.718 246.257 172.349 248.524L170.773 251.183C169.728 249.139 169.164 247.366 167.671 245.541Z"/>
	<path fill="#C9A9E1" transform="scale(2.98839 2.98839)" d="M118.48 286.048C120.218 286.227 121.955 286.416 123.697 286.548C119.611 290.319 120.36 295.949 115.943 294.982C118.508 291.827 119.375 294.229 118.431 288.783C118.287 287.948 119.045 287.489 119.079 286.656L118.48 286.048Z"/>
	<path fill="#A47ADA" transform="scale(2.98839 2.98839)" d="M167.671 245.541C169.164 247.366 169.728 249.139 170.773 251.183C169.386 254.657 170.516 257.9 169.797 261.385C169.578 259.126 169.78 256.691 169.797 254.414C168.097 252.625 166.686 250.447 165.12 248.524L167.671 245.541Z"/>
	<path fill="#F1E8F0" transform="scale(2.98839 2.98839)" d="M173.206 234.195C173.789 234.483 181.155 245.251 181.19 245.346L180.783 245.541L176.549 245.541C175.616 239.923 172.038 237.715 173.206 234.195Z"/>
	<path fill="#C9A9E1" transform="scale(2.98839 2.98839)" d="M95.2565 279.088C97.9669 280.376 100.734 281.777 103.53 282.858C102.708 284.777 102.583 285.483 102.687 287.442C99.2965 285.567 95.9878 283.184 95.2565 279.088Z"/>
	<path fill="#C9A9E1" transform="scale(2.98839 2.98839)" d="M182.155 171.53C183.98 171.784 188.612 176.867 189.797 178.385C188.166 179.272 186.61 180.311 185.042 181.305C184.326 177.917 183.433 174.752 182.155 171.53Z"/>
	<path fill="#A1C3EB" transform="scale(2.98839 2.98839)" d="M139.039 440.705C132.227 435.453 142.944 431.463 147.181 430.097C146.009 433.808 140.799 436.597 139.039 440.705Z"/>
	<path fill="#9CC265" transform="scale(2.98839 2.98839)" d="M244.481 245.541C246.912 243.322 249.243 242.355 252.435 241.891C252.146 243.498 252.114 244.634 252.435 246.257C249.027 248.5 246.872 251.149 244.481 254.414C243.931 252.198 244.475 247.992 244.481 245.541Z"/>
	<path fill="#A1C3EB" transform="scale(2.98839 2.98839)" d="M141.677 472.069C134.433 468.651 145.946 459.332 149.195 456.762C148.305 461.914 144.975 468.022 141.677 472.069Z"/>
	<path fill="#A1C3EB" transform="scale(2.98839 2.98839)" d="M143.099 404.359C140.245 398.543 150.958 393.7 154.919 392.043C153.544 398.014 148.463 402.05 143.099 404.359Z"/>
	<path fill="#E7CDEA" transform="scale(2.98839 2.98839)" d="M244.771 301.805C247.262 304.706 248.863 308.381 249.963 312.022C249.589 311.984 249.23 311.944 248.861 311.875L248.448 312.082C246.952 312.815 245.348 312.674 244.481 314.198C243.184 310.801 242.177 307.318 240.827 303.935C241.811 302.836 243.561 302.712 244.771 301.805Z"/>
	<path fill="#BDCF74" transform="scale(2.98839 2.98839)" d="M322.489 150.517L322.736 149.126C323.337 145.606 325.005 142.293 326.826 139.253C327.441 141.397 328.134 142.666 329.713 140.531C330.19 143.101 330.674 145.695 330.75 148.313C329.377 148.877 323.378 152.497 322.489 150.517Z"/>
	<path fill="#E7CDEA" transform="scale(2.98839 2.98839)" d="M244.481 314.198C245.348 312.674 246.952 312.815 248.448 312.082L248.861 311.875C249.23 311.944 249.589 311.984 249.963 312.022C250.686 314.751 250.994 317.461 251.139 320.276C251.15 322.414 251.549 324.105 248.839 323.554L244.771 322.604C244.783 319.812 244.485 317.005 244.481 314.198ZM248.839 323.554C251.549 324.105 251.15 322.414 251.139 320.276C248.996 319.989 246.916 321.815 248.839 323.554Z"/>
	<path fill="#6EC2D5" transform="scale(2.98839 2.98839)" d="M296.307 240.585C300.406 242.999 300.26 255.56 296.307 258.721C290.104 260.94 295.853 242.686 296.307 240.585Z"/>
	<path fill="#F1E8F0" transform="scale(2.98839 2.98839)" d="M228.508 183.32C229.922 183.296 231.329 183.292 232.743 183.32C233.912 185.387 235.182 187.211 236.807 188.947C236.737 188.968 236.667 188.989 236.597 189.01L236.248 189.121C233.691 189.915 231.482 191.287 229.177 192.625C227.51 193.386 225.981 194.423 224.438 195.404C223.915 189.578 226.414 188.375 228.508 183.32Z"/>
	<path fill="#7F8DE2" transform="scale(2.98839 2.98839)" d="M149.195 456.762C157.052 449.359 151.688 476.548 141.677 472.069C144.975 468.022 148.305 461.914 149.195 456.762Z"/>
	<path fill="#7F8DE2" transform="scale(2.98839 2.98839)" d="M147.181 430.097C161.592 423.934 147.688 444.531 139.039 440.705C140.799 436.597 146.009 433.808 147.181 430.097Z"/>
	<path fill="#A47ADA" transform="scale(2.98839 2.98839)" d="M223.192 135.764C226.893 142.65 224.495 146.081 222.103 152.562C218.635 161.957 221.734 156.159 214.662 159.854C215.714 154.111 221.005 143.341 223.192 135.764Z"/>
	<path fill="#6EC2D5" transform="scale(2.98839 2.98839)" d="M355.038 326.239L355.228 326.47C355.079 330.737 354.836 350.186 347.244 347.256C343.687 341.275 351.8 330.91 355.038 326.239Z"/>
	<path fill="#7F8DE2" transform="scale(2.98839 2.98839)" d="M154.919 392.043C167.952 386.951 153.19 413.367 143.099 404.359C148.463 402.05 153.544 398.014 154.919 392.043Z"/>
	<path fill="#E7CDEA" transform="scale(2.98839 2.98839)" d="M103.53 282.858C108.275 284.554 113.426 285.778 118.48 286.048L119.079 286.656C119.045 287.489 118.287 287.948 118.431 288.783C119.375 294.229 118.508 291.827 115.943 294.982C111.59 292.132 106.786 290.886 102.687 287.442C102.583 285.483 102.708 284.777 103.53 282.858Z"/>
	<path fill="#6EC2D5" transform="scale(2.98839 2.98839)" d="M336.512 290.443L336.734 290.87C336.668 294.082 336.224 315.433 328.767 312.022C324.618 305.521 332.001 294.753 336.512 290.443Z"/>
	<path fill="#6EC2D5" transform="scale(2.98839 2.98839)" d="M311.565 300.157C315.05 303.316 312.824 323.559 305.886 320.276C300.379 314.097 306.449 304.588 311.565 300.157Z"/>
	<path fill="#6EC2D5" transform="scale(2.98839 2.98839)" d="M314.171 264.192C319.621 266.893 323.058 281.435 318.467 286.548C311.891 286.658 310.419 270.082 314.171 264.192Z"/>
	<path fill="#6EC2D5" transform="scale(2.98839 2.98839)" d="M369.329 319.245C375.901 318.583 397.984 324.554 392.843 332.759C385.241 336.539 377.427 323.132 369.329 319.245Z"/>
	<path fill="#7F8DE2" transform="scale(2.98839 2.98839)" d="M198.498 404.359C204.002 405.68 207.834 419.758 203.799 425.294C197.177 427.648 192.957 410.078 198.498 404.359Z"/>
	<path fill="#C9A9E1" transform="scale(2.98839 2.98839)" d="M165.12 248.524C166.686 250.447 168.097 252.625 169.797 254.414C169.78 256.691 169.578 259.126 169.797 261.385C165.805 261.761 162.305 262.804 158.568 264.192C156.843 261.636 155.046 260.093 152.289 258.721C157.101 256.148 161.417 252.512 165.12 248.524Z"/>
	<path fill="#6EC2D5" transform="scale(2.98839 2.98839)" d="M293.375 272.13C298.46 274.599 300.579 289.728 292.526 293.763C283.862 293.021 289.127 276.258 293.375 272.13Z"/>
	<path fill="#6EC2D5" transform="scale(2.98839 2.98839)" d="M330.75 324.43C332.84 330.205 336.618 346.178 327.528 347.256C319.458 342.782 325.034 328.565 330.75 324.43Z"/>
	<path fill="#6EC2D5" transform="scale(2.98839 2.98839)" d="M372.056 349.268C377.219 354.725 382.051 367.872 373.683 372.311C362.959 372.016 369.106 354.582 372.056 349.268Z"/>
	<path fill="#7F8DE2" transform="scale(2.98839 2.98839)" d="M169.303 393.31C175.632 395.974 182.571 411.114 177.391 416.396C167.483 419.265 165.58 400.756 169.303 393.31Z"/>
	<path fill="#E7CDEA" transform="scale(2.98839 2.98839)" d="M163.455 160.705C165.128 164.642 156.828 189.229 163.455 203.253C162.472 203.849 161.673 204.627 160.989 205.543C153.753 193.191 152.441 171.143 163.455 160.705Z"/>
	<path fill="#A47ADA" transform="scale(2.98839 2.98839)" d="M115.321 234.195C118.567 229.719 129.47 234.499 133.152 236.378C130.486 243.054 131.549 249.448 131.27 256.418C127.781 252.416 124.101 248.331 121.219 243.861C119.213 240.749 117.721 236.998 115.321 234.195Z"/>
	<path fill="#F99B41" transform="scale(2.98839 2.98839)" d="M226.973 272.13L228.002 272.164C234.767 275.866 232.555 291.97 225.553 294.982C224.051 292.627 222.2 291.224 219.883 289.701C218.353 283.252 220.357 274.85 226.973 272.13Z"/>
	<path fill="#C9A9E1" transform="scale(2.98839 2.98839)" d="M235.956 160.705C243.901 159.994 253.475 166.178 258.534 172.206C257.809 176.576 256.843 180.746 257.277 185.202C251.688 184.011 240.848 166.75 236.266 161.085L235.956 160.705Z"/>
	<path fill="#E7CDEA" transform="scale(2.98839 2.98839)" d="M177.391 260.372C185.368 260.446 200.51 274.35 206.209 279.325C207.748 280.669 212.299 282.941 212.711 284.92C197.11 284.269 185.363 272.829 177.391 260.372Z"/>
	<path fill="#F99B41" transform="scale(2.98839 2.98839)" d="M135.802 325.05C144.357 328.715 141.533 345.157 131.27 347.256C122.075 344.149 126.131 327.931 135.802 325.05Z"/>
	<path fill="#E7CDEA" transform="scale(2.98839 2.98839)" d="M123.697 347.256C124.869 348.649 126.176 349.873 127.718 350.852C124.143 363.767 115.099 366.831 104.911 372.311C105.703 370.446 104.891 370.678 103.458 370.281C101.971 369.869 103.713 367.369 102.687 366.001C104.339 363.803 119.625 351.539 123.697 347.256Z"/>
	<path fill="#E7CDEA" transform="scale(2.98839 2.98839)" d="M374.478 277.705C374.401 278.967 374.341 280.168 374.478 281.43C374.58 282.76 374.85 284.271 374.737 285.584C374.06 293.45 355.529 316.582 350.119 297.961C361.826 291.687 367.617 289 374.478 277.705Z"/>
	<path fill="#F99B41" transform="scale(2.98839 2.98839)" d="M218.541 163.043C227.634 162.846 225.599 190.502 216.374 188.947C216.286 182.652 215.544 178.452 209.407 175.454C210.122 169.766 212.301 164.262 218.541 163.043Z"/>
	<path fill="#E7CDEA" transform="scale(2.98839 2.98839)" d="M115.321 234.195C117.721 236.998 119.213 240.749 121.219 243.861C124.101 248.331 127.781 252.416 131.27 256.418C133.983 260.535 136.569 262.34 141.677 261.945C140.508 263.963 139.695 265.832 139.039 268.075C135.321 265.87 131.895 265.042 127.718 264.192C120.876 260.208 110.991 242.388 115.321 234.195Z"/>
	<path fill="#F99B41" transform="scale(2.98839 2.98839)" d="M169.303 204.455C179.49 201.79 177.94 226.575 169.797 227.923C159.78 226.015 159.746 206.266 169.303 204.455Z"/>
	<path fill="#E7CDEA" transform="scale(2.98839 2.98839)" d="M148.424 347.256C157.757 350.316 163.697 369.168 160.817 377.504C159.356 381.733 156.184 381.853 152.289 382.201C152.835 370.745 151.563 361.14 146.403 350.852C147.299 350.235 149.492 348.179 148.424 347.256Z"/>
	<path fill="#E7CDEA" transform="scale(2.98839 2.98839)" d="M387.903 270.388L388.492 269.207C389.888 269.382 393.512 271.402 395.614 271.965L396.215 272.13C401.814 277.026 406.827 282.621 407.35 290.412C408.172 302.674 405.389 309.333 393.243 301.805C396.329 299.651 398.625 303.264 399.385 294.627C400.245 284.845 393.8 277.34 387.903 270.388Z"/>
	<path fill="#C9A9E1" transform="scale(2.98839 2.98839)" d="M160.192 280.022C170.093 284.175 179.619 285.553 189.797 281.43C192.027 283.544 194.157 284.582 197.079 285.413C182.536 295.859 175.455 297.075 159.063 285.413C159.285 283.6 159.777 281.801 160.192 280.022Z"/>
	<path fill="#F1E8F0" transform="scale(2.98839 2.98839)" d="M197.079 362.436C199.151 362.642 198.72 363.635 199.926 365.061C198.668 372.555 197.878 373.451 191.503 377.996C186.684 381.431 169.941 391.163 169.797 379.076C171.491 379.615 171.478 376.897 172.116 375.627L172.349 375.171C178.501 377.831 192.603 366.406 197.079 362.436Z"/>
	<path fill="#E7CDEA" transform="scale(2.98839 2.98839)" d="M119.116 197.441C126.425 200.744 133.445 206.424 141.622 210.105C144.395 211.353 157.877 215.916 158.568 216.509C158.393 218.426 147.312 220.058 144.508 220.843C137.223 219.532 117.978 206.857 119.116 197.441Z"/>
	<path fill="#C9A9E1" transform="scale(2.98839 2.98839)" d="M273.518 220.843C279.705 224.444 279.786 226.382 281.702 233.494C283.614 240.589 285.584 266.599 271.472 258.721C277.326 247.622 275.625 233.284 270.662 222.215L273.518 220.843Z"/>
	<path fill="#F99B41" transform="scale(2.98839 2.98839)" d="M149.195 263.141C160.68 263.462 155.943 289.034 149.195 289.701C138.507 286.506 139.491 266.397 149.195 263.141Z"/>
	<path fill="#F99B41" transform="scale(2.98839 2.98839)" d="M210.321 330.75C220.777 330.142 215.63 354.393 206.181 356.726C193.741 353.917 201.987 334.331 210.321 330.75Z"/>
	<path fill="#E7CDEA" transform="scale(2.98839 2.98839)" d="M135.802 254.414C145.136 249.916 151.678 243.217 158.352 235.562C159.956 233.723 161.461 231.233 163.455 229.824C165.343 231.138 167.098 231.846 169.303 232.47C163.904 243.909 158.779 251.773 146.279 256.307C141.328 258.103 138.365 259.42 135.802 254.414Z"/>
	<path fill="#E7CDEA" transform="scale(2.98839 2.98839)" d="M366.311 265.855L366.394 266.386C366.144 266.849 365.891 267.102 365.452 267.377C351.923 275.822 313.156 261.135 332.04 250.01C344.162 260.407 349.981 264.19 366.311 265.855Z"/>
	<path fill="#A47ADA" transform="scale(2.98839 2.98839)" d="M201.563 288.282C204.622 289.161 208.13 289.344 211.29 289.701C200.712 298.928 195.736 303.607 193.644 319.245L193.644 320.935L193.262 320.696C186.959 316.801 185.832 308.228 187.654 301.539C189.544 294.602 195.775 291.548 201.563 288.282Z"/>
	<path fill="#F99B41" transform="scale(2.98839 2.98839)" d="M269.737 193.784C276.324 193.316 275.244 204.072 274.715 208.16C273.868 214.699 272.531 218.765 265.307 217.704C253.573 211.208 258.505 197.052 269.737 193.784Z"/>
	<path fill="#F99B41" transform="scale(2.98839 2.98839)" d="M377.364 245.541C387.213 245.703 389.319 267.031 379.062 271.402C366.924 271.875 368.466 249.65 377.364 245.541Z"/>
	<path fill="#E7CDEA" transform="scale(2.98839 2.98839)" d="M84.753 317.758C96.2619 322.422 106.08 329.198 119.116 329.863C120.292 330.534 121.159 331.676 121.931 332.759C122.012 334.235 122.079 335.655 121.931 337.13C109.279 340.236 91.4602 333.642 85.3249 321.922C84.5942 320.526 84.2852 319.277 84.753 317.758Z"/>
	<path fill="#E7CDEA" transform="scale(2.98839 2.98839)" d="M162.404 320.276C163.846 320.074 165.305 322.833 166.285 323.762C169.742 327.045 195.961 344.396 196.027 344.68C195.433 346.473 195.202 348.138 195.052 350.009C179.1 350.644 164.308 334.905 162.404 320.276Z"/>
	<path fill="#E7CDEA" transform="scale(2.98839 2.98839)" d="M217.807 354.162C219.133 354.317 220.536 354.384 221.82 354.754C228.552 361.675 233.852 369.963 233.671 379.897C233.456 391.68 229.169 398.506 217.807 390.427C223.208 381.699 226.084 368.967 221.593 359.391C220.742 357.578 218.224 356.011 217.807 354.162Z"/>
	<path fill="#A47ADA" transform="scale(2.98839 2.98839)" d="M160.989 269.243C165.175 265.603 170.364 265.601 175.661 265.855C179.22 271.759 184.175 277.453 189.797 281.43C179.619 285.553 170.093 284.175 160.192 280.022C159.806 276.72 160.141 272.459 160.989 269.243Z"/>
	<path fill="#A47ADA" transform="scale(2.98839 2.98839)" d="M182.155 353.156C187.109 355.075 191.425 355.529 196.676 354.754C197.687 356.373 199.028 358.168 200.734 359.087C199.28 359.822 198.15 361.231 197.079 362.436C192.603 366.406 178.501 377.831 172.349 375.171C171.444 374.565 170.629 373.842 169.797 373.142C172.478 364.881 175.004 358.494 182.155 353.156Z"/>
	<path fill="#A47ADA" transform="scale(2.98839 2.98839)" d="M355.038 274.725C360.159 273.881 364.732 272.876 369.329 270.388L369.611 270.969C370.741 273.348 372.28 274.457 374.478 275.774L374.478 281.43C374.341 280.168 374.401 278.967 374.478 277.705C367.617 289 361.826 291.687 350.119 297.961C348.673 289.608 349.635 281.592 355.038 274.725Z"/>
	<path fill="#A47ADA" transform="scale(2.98839 2.98839)" d="M226.973 298.661C230.815 297.88 231.898 295.229 233.934 292.309L234.298 292.334L234.708 292.827L238.244 294.982C238.423 296.418 239.533 298.973 239.128 300.157C239.649 301.445 240.218 302.688 240.827 303.935C242.177 307.318 243.184 310.801 244.481 314.198C244.485 317.005 244.783 319.812 244.771 322.604C238.579 321.983 232.965 323.094 226.973 324.43C229.287 315.096 228.913 307.962 226.973 298.661Z"/>
	<path fill="#C9A9E1" transform="scale(2.98839 2.98839)" d="M234.708 292.827L238.244 294.982C238.423 296.418 239.533 298.973 239.128 300.157C237.803 298.289 234.97 294.999 234.708 292.827Z"/>
	<path fill="#E7CDEA" transform="scale(2.98839 2.98839)" d="M235.956 160.705L236.266 161.085C240.848 166.75 251.688 184.011 257.277 185.202C257.449 188.467 257.853 191.66 258.534 194.861C257.697 196.163 256.867 197.387 255.847 198.554C250.484 195.84 243.554 189.727 239.915 185.099C236.016 180.141 229.043 165.883 235.956 160.705Z"/>
	<path fill="#A47ADA" transform="scale(2.98839 2.98839)" d="M84.753 317.758C90.5132 308.327 104.919 308.763 114.267 311.085C114.239 320.583 115.31 321.397 119.116 329.863C106.08 329.198 96.2619 322.422 84.753 317.758Z"/>
	<path fill="#A47ADA" transform="scale(2.98839 2.98839)" d="M387.903 270.388C393.8 277.34 400.245 284.845 399.385 294.627C398.625 303.264 396.329 299.651 393.243 301.805C383.656 296.81 378.597 286.315 378.164 275.774C382.877 275.642 384.889 274.032 387.903 270.388Z"/>
	<path fill="#C9A9E1" transform="scale(2.98839 2.98839)" d="M162.404 320.276C162.339 313.573 186.736 319.246 192.639 326.6C195.196 329.786 195.214 334.169 197.079 337.742C196.715 339.986 196.109 342.414 196.027 344.68C195.961 344.396 169.742 327.045 166.285 323.762C165.305 322.833 163.846 320.074 162.404 320.276Z"/>
	<path fill="#E7CDEA" transform="scale(2.98839 2.98839)" d="M154.919 319.245L157.666 319.245C158.081 330.842 164.718 335.384 169.624 343.637L169.797 343.934C165.761 345.248 161.818 345.585 157.666 344.68C153.268 344.215 147.868 342.597 144.508 339.596C146.102 334.205 145.788 329.04 142.191 324.43C146.09 321.382 150.041 319.956 154.919 319.245Z"/>
	<path fill="#A47ADA" transform="scale(2.98839 2.98839)" d="M332.04 250.01C344.847 239.123 356.022 248.399 366.311 254.414C365.947 257.277 365.431 263.058 366.311 265.855C349.981 264.19 344.162 260.407 332.04 250.01Z"/>
	<path fill="#A47ADA" transform="scale(2.98839 2.98839)" d="M156.367 289.701C165.666 294.464 170.916 302.476 172.349 312.987C166.975 312.775 158.245 313.757 152.289 314.198C151.45 312.377 150.551 310.832 149.195 309.342C148.459 303.167 147.146 297.5 144.508 291.843C150.088 294.371 152.076 293.658 156.367 289.701Z"/>
	<path fill="#A47ADA" transform="scale(2.98839 2.98839)" d="M107.312 342.143C112.342 342.837 116.909 342.883 121.931 342.143C122.462 343.865 123.093 345.558 123.697 347.256C119.625 351.539 104.339 363.803 102.687 366.001C103.713 367.369 101.971 369.869 103.458 370.281C104.891 370.678 105.703 370.446 104.911 372.311C102.033 372.574 99.119 373.043 96.2756 372.311L95.2565 372.311C95.0634 359.048 97.0286 351.976 107.312 342.143Z"/>
	<path fill="#E7CDEA" transform="scale(2.98839 2.98839)" d="M97.8194 370.383C99.2793 368.727 100.915 367.31 102.687 366.001C103.713 367.369 101.971 369.869 103.458 370.281C104.891 370.678 105.703 370.446 104.911 372.311C102.033 372.574 99.119 373.043 96.2756 372.311L95.2565 372.311C95.9375 371.395 96.8529 370.939 97.8194 370.383Z"/>
	<path fill="#E7CDEA" transform="scale(2.98839 2.98839)" d="M95.2565 372.311C95.9375 371.395 96.8529 370.939 97.8194 370.383C101.466 370.827 98.161 372.225 96.2756 372.311L95.2565 372.311Z"/>
	<path fill="#A47ADA" transform="scale(2.98839 2.98839)" d="M135.802 254.414C132.705 235.241 141.359 225.686 159.063 222.215C159.822 225.316 161.138 227.632 163.455 229.824C161.461 231.233 159.956 233.723 158.352 235.562C151.678 243.217 145.136 249.916 135.802 254.414Z"/>
	<path fill="#A47ADA" transform="scale(2.98839 2.98839)" d="M206.181 361.101C213.971 359.633 212.091 357.823 217.317 354.047L217.807 354.162C218.224 356.011 220.742 357.578 221.593 359.391C226.084 368.967 223.208 381.699 217.807 390.427C210.224 384.075 207.122 379.557 203.799 370.383C204.329 367.197 205.023 364.121 206.181 361.101Z"/>
	<path fill="#A47ADA" transform="scale(2.98839 2.98839)" d="M259.363 219.293C263.279 221.36 266.144 222.561 270.662 222.215C275.625 233.284 277.326 247.622 271.472 258.721C257.861 252.335 257.182 231.917 259.363 219.293Z"/>
	<path fill="#A47ADA" transform="scale(2.98839 2.98839)" d="M119.116 197.441C125.227 192.755 134.176 191.465 141.659 192.441C154.311 194.092 152.914 200.49 158.568 210.65C158.38 212.48 157.985 214.723 158.568 216.509C157.877 215.916 144.395 211.353 141.622 210.105C133.445 206.424 126.425 200.744 119.116 197.441Z"/>
	<path fill="#A47ADA" transform="scale(2.98839 2.98839)" d="M133.152 350.852C141.487 350.733 140.656 343.383 144.508 345.728L148.424 347.256C149.492 348.179 147.299 350.235 146.403 350.852C151.563 361.14 152.835 370.745 152.289 382.201C139.216 376.892 133.709 372.539 130.601 357.581C131.536 355.354 132.376 353.139 133.152 350.852Z"/>
	<path fill="#E7CDEA" transform="scale(2.98839 2.98839)" d="M144.508 345.728L148.424 347.256C149.492 348.179 147.299 350.235 146.403 350.852C145.5 349.341 144.557 347.804 144.221 346.057L144.508 345.728Z"/>
	<path fill="#A47ADA" transform="scale(2.98839 2.98839)" d="M95.2565 279.088C101.736 270.128 127.598 266.121 137.74 272.13C137.637 276.742 137.473 280.511 139.039 284.92C133.661 281.658 127.465 280.353 123.697 286.548C121.955 286.416 120.218 286.227 118.48 286.048C113.426 285.778 108.275 284.554 103.53 282.858C100.734 281.777 97.9669 280.376 95.2565 279.088Z"/>
	<path fill="#A47ADA" transform="scale(2.98839 2.98839)" d="M224.438 160.705C227.208 152.387 228.622 145.39 237.115 141.125C242.536 138.403 253.305 135.707 256.741 142.752C259.585 148.584 255.88 156.546 253.392 162.09C242.538 154.39 226.495 151.232 228.508 169.964L228.508 169.964C227.692 166.441 226.886 163.487 224.438 160.705Z"/>
	<path fill="#C9A9E1" transform="scale(2.98839 2.98839)" d="M163.455 160.705C174.15 161.747 180.057 176.102 180.783 185.202C176.179 191.257 175.045 193.215 171.476 199.573C167.936 199.805 165.654 200.441 163.455 203.253C156.828 189.229 165.128 164.642 163.455 160.705Z"/>
	<path fill="#A47ADA" transform="scale(2.98839 2.98839)" d="M163.455 155.915C171.262 150.391 193.086 150.946 198.747 158.828C200.169 160.808 204.555 169.158 205.508 171.53C205.303 172.526 205.119 173.531 204.882 174.52C199.431 174.998 194.801 176.141 189.797 178.385C188.612 176.867 183.98 171.784 182.155 171.53C174.375 159.287 175.297 161.006 163.455 155.915Z"/>
	<path fill="#C9A9E1" transform="scale(2.98839 2.98839)" d="M177.391 260.372C169.675 248.912 180.462 248.79 189.038 250.918C208.175 255.666 207.457 265.921 216.374 277.705C215.698 280.8 216.686 284.916 212.711 284.92C212.299 282.941 207.748 280.669 206.209 279.325C200.51 274.35 185.368 260.446 177.391 260.372Z"/>
	<path fill="#E7CDEA" transform="scale(2.98839 2.98839)" d="M347.244 212.288C356.196 211.504 365.31 217.033 369.329 224.948C367.072 232.123 366.751 238.726 370.695 245.541C369.723 246.609 368.597 247.218 367.85 248.524C367.291 250.754 357.358 242.765 355.549 241.333C348.382 235.657 340.249 220.955 347.244 212.288Z"/>
	<path fill="#A47ADA" transform="scale(2.98839 2.98839)" d="M188.22 216.509C195.718 213.329 213.967 242.769 199.926 250.01C198.271 249.367 196.676 248.473 195.052 247.739C184.967 245.326 180.753 239.123 176.549 229.824C178.683 225.358 179.922 221.38 180.783 216.509C183.296 216.366 185.709 216.39 188.22 216.509Z"/>
	<defs>
		<linearGradient id="gradient_0" gradientUnits="userSpaceOnUse" x1="249.10538" y1="266.3772" x2="255.15231" y2="289.12726">
			<stop offset="0" stop-color="#D7B5E8"/>
			<stop offset="1" stop-color="#EFD8F3"/>
		</linearGradient>
	</defs>
	<path fill="url(#gradient_0)" transform="scale(2.98839 2.98839)" d="M248.839 266.852C259.554 264.339 286.24 275.816 255.847 289.701C248.268 291.501 242.456 291.861 235.956 286.548C236.728 281.472 236.261 276.992 234.708 272.13C239.039 268.588 243.328 267.338 248.839 266.852Z"/>
	<path fill="#E7CDEA" transform="scale(2.98839 2.98839)" d="M237.748 327.1C243.29 325.923 261.181 330.417 255.512 338.954C251.759 344.606 243.176 348 236.807 349.268C230.689 350.193 224.619 350.648 218.541 349.268C220.129 343.364 220.842 338.825 219.883 332.759C225.131 328.968 231.423 327.674 237.748 327.1Z"/>
	<path fill="#BDCF74" transform="scale(2.98839 2.98839)" d="M348.065 133.781C369.392 142.675 377.229 174.553 370.695 194.861C368.122 192.031 362.649 178.014 360.071 176.726C353.09 163.534 350.035 148.44 348.065 133.781Z"/>
	<path fill="#E7CDEA" transform="scale(2.98839 2.98839)" d="M215.19 293.763C227.179 293.057 224.599 319.031 221.82 326.239C220.378 326.894 219.097 327.901 217.807 328.811C213.4 325.809 209.401 325.744 204.882 328.811C203.103 330.292 201.453 332.009 199.926 333.747C196.242 319.667 199.953 299.213 215.19 293.763Z"/>
	<path fill="#E7CDEA" transform="scale(2.98839 2.98839)" d="M392.843 204.455C397.723 208.436 399.851 218.614 399.171 224.548C397.68 237.548 393.101 237.743 385.197 244.028C383.725 243.041 382.255 242.444 380.587 241.891C377.987 241.194 376.069 241.533 373.683 242.593C369.223 227.318 378.549 210.681 392.843 204.455Z"/>
	<path fill="#E7CDEA" transform="scale(2.98839 2.98839)" d="M130.601 286.548C143.925 285.785 144.598 308.972 144.508 317.758C142.006 318.608 140.808 319.84 139.039 321.708C135.471 320.505 132.442 320.8 129.632 323.554C127.277 324.704 125.95 325.968 124.228 327.922C122.356 325.669 120.727 323.161 119.846 320.349C117.568 313.085 121.38 289.379 130.601 286.548Z"/>
	<path fill="#E7CDEA" transform="scale(2.98839 2.98839)" d="M407.234 239.927C413.731 239.665 422.743 240.484 426.762 246.257C424.317 255.362 415.961 262.373 407.234 265.183C401.278 266.606 396.116 266.475 390.171 265.183C390.927 257.808 390.506 254.627 387.903 247.739C393.688 243.343 400.088 240.969 407.234 239.927Z"/>
	<path fill="#9CC265" transform="scale(2.98839 2.98839)" d="M343.601 134.723C343.948 136.592 344.643 142.341 345.432 143.664C346.306 149.82 355.297 189.655 360.071 176.726C362.649 178.014 368.122 192.031 370.695 194.861C369.725 196.777 369.001 198.729 367.85 200.562C339.993 194.627 331.659 158.526 343.601 134.723Z"/>
	<path fill="#E7CDEA" transform="scale(2.98839 2.98839)" d="M282.724 153.257C293.75 160.224 287.615 183.022 282.724 192.16C278.144 190.566 273.236 189.657 268.377 189.746C266.439 190.139 264.609 190.666 262.733 191.292C259.115 176.775 268.516 158.355 282.724 153.257Z"/>
	<path fill="#C9A9E1" transform="scale(2.98839 2.98839)" d="M204.882 179.548C205.984 179.399 207.092 179.497 208.199 179.548C213.417 183.814 211.777 191.574 209.079 196.845C202.916 208.889 194.429 208.781 183.968 212.177L183.63 212.288C177.257 212.658 183.254 207.443 175.661 201.396C180.108 189.629 192.17 179.774 204.882 179.548Z"/>
	<path fill="#E7CDEA" transform="scale(2.98839 2.98839)" d="M286.572 196.527C299.737 195.299 312.025 202.811 317.461 214.826C313.787 217.169 309.812 218.975 305.886 220.843C294.682 222.455 287.097 222.583 276.625 217.704C279.367 211.426 279.43 205.292 279.347 198.554C281.857 197.116 283.724 196.671 286.572 196.527Z"/>
	<path fill="#E7CDEA" transform="scale(2.98839 2.98839)" d="M229.177 231.468C240.675 229.966 240.817 256.894 238.244 264.192C235.999 265.863 233.758 267.393 231.642 269.243C229.006 267.107 226 267.594 223.192 269.243C221.312 270.317 220.004 271.772 218.541 273.34C210.409 264.508 215.274 235.601 229.177 231.468Z"/>
	<path fill="#A47ADA" transform="scale(2.98839 2.98839)" d="M239.128 193.784C241.426 193.465 251.245 201.556 254.655 203.253C254.138 208.502 254.833 211.843 257.277 216.509C248.617 219.588 248.298 224.56 234.708 226.022C201.589 227.476 219.741 195.596 239.128 193.784Z"/>
	<path fill="#9CC265" transform="scale(2.98839 2.98839)" d="M323.358 135.764C321.28 141.178 319.063 146.556 316.561 151.79C315.016 156.742 304.037 179.973 305.042 182.205C310.79 186.86 317.401 156.717 322.489 150.517C323.378 152.497 329.377 148.877 330.75 148.313C331.759 166.375 324.389 186.571 310.502 198.554C303.18 194.499 297.253 192.009 288.728 192.16C292.586 184.173 296.45 160.842 301.834 155.915C305.567 147.964 315.364 139.242 323.358 135.764Z"/>
	<path fill="#BDCF74" transform="scale(2.98839 2.98839)" d="M323.358 135.764C321.28 141.178 319.063 146.556 316.561 151.79C316.041 150.372 320.492 143.143 320.905 140.865L320.457 140.874L320.303 140.507C319.063 140.482 317.795 140.394 316.561 140.531C312.411 142.868 302.222 155.823 301.834 155.915C305.567 147.964 315.364 139.242 323.358 135.764Z"/>
</svg>
