<svg id="Layer_2" data-name="Layer 2" xmlns="http://www.w3.org/2000/svg" viewBox="0 0 300 300"><path d="M227.18,160.05l0-.1a3.28,3.28,0,0,0-.21-.86l-.07-.25a3.11,3.11,0,0,0-1.41-1.91,3.16,3.16,0,0,0-1.6-.44,3.22,3.22,0,0,0-.76.09,34,34,0,0,0-6.07,2.64,62.1,62.1,0,0,1-13.29,2.11c-2,.11-4.08.12-6.25.13-7.86,0-16,.1-22.95,4.53-4.17,2.66-7.2,6.5-9.84,10.25q-.93,1.32-1.86,2.7-.32-6.3-.87-12.59c5.24-2.58,10.49-5.25,15.64-8,4.3-2.26,8.1-4.42,11-8,6.08-7.44,5.7-19.25-.89-27.48a8.44,8.44,0,0,0-3.19-2.65,7.62,7.62,0,0,0-3.12-.59c-.32,0-.64,0-1,0a31.15,31.15,0,0,0-23,13.52c-.31-1.63-.63-3.25-1-4.87,5.26-2.6,10.54-5.29,15.73-8,4.52-2.37,8.51-4.64,11.54-8.35,6.36-7.79,6-20.16-.94-28.77a8.91,8.91,0,0,0-3.31-2.75,7.83,7.83,0,0,0-3.13-.6,27.13,27.13,0,0,0,4.59-4.38c7.43-9.09,6.94-23.55-1.13-33.63a9.91,9.91,0,0,0-3.72-3.11,9,9,0,0,0-3.61-.67c-.38,0-.76,0-1.15,0a33.59,33.59,0,0,0-5.77.9C173,30,172.46,15.52,164.4,5.45a10,10,0,0,0-3.73-3.11,8.78,8.78,0,0,0-3.61-.68c-.38,0-.76,0-1.14,0-13.36.82-26.84,10.4-31.35,22.27a90.56,90.56,0,0,0-2.73,10l-.57-1-.06-.35c-1.06-5-2.19-10-3.37-14.87-1-4-2-7.62-4.31-10.79A18.23,18.23,0,0,0,98.79,0a20.65,20.65,0,0,0-8.48,1.81A7.76,7.76,0,0,0,87.3,4a7.59,7.59,0,0,0-1.39,3.42c-1.73,9.15,2.45,19.89,9.71,25a64.31,64.31,0,0,0,9.83,5.17A26.87,26.87,0,0,0,99.92,37C90.62,37,80.85,41.42,75,48.2A9.11,9.11,0,0,0,72.91,52a9,9,0,0,0,.21,4.4C75.82,67,85.42,75,95.44,75h.74a24.09,24.09,0,0,0,4.75-.71A33.13,33.13,0,0,0,85,84.18a7.93,7.93,0,0,0-1.92,8.19c2.59,10.17,11.5,17.93,21.05,18.58a30.6,30.6,0,0,0-8.55,6.83,9.11,9.11,0,0,0-2.13,3.79,9,9,0,0,0,.21,4.39c2.69,10.59,12.22,18.58,22.21,18.64a33.07,33.07,0,0,0-15.62,9.78,9.11,9.11,0,0,0-2.13,3.79,9,9,0,0,0,.21,4.39c2.7,10.63,12.29,18.65,22.32,18.65h0l.74,0c4.93-.19,9.27-2.06,14-4.3,4.47-2.1,8.94-4.28,13.38-6.49.25,3.23.46,6.45.61,9.69a189.86,189.86,0,0,1-.12,23.31q-.64-.94-1.29-1.86c-2.64-3.76-5.67-7.59-9.84-10.25-7-4.44-15.09-4.48-23-4.53-2.17,0-4.22,0-6.26-.12a62.54,62.54,0,0,1-12.48-1.9c-1.26-.57-2.52-1.12-3.77-1.66l-.72-.31-9.71-4.24a3.22,3.22,0,0,0-1.25-.26,2.92,2.92,0,0,0-1.13.22,3.09,3.09,0,0,0-1.72,1.65l-.5,1.14a3.11,3.11,0,0,0,1.6,4.09c3.25,1.42,6.49,2.84,9.75,4.25l.71.31.19.08c3.7,2.44,6.7,5,8.08,8.33a24.62,24.62,0,0,1,1.24,5.28c.08.49.16,1,.25,1.48a36.51,36.51,0,0,0,4.14,12.16c4.58,7.93,13.39,13.66,24.16,15.72a82.9,82.9,0,0,0,14.29,1.5,201.68,201.68,0,0,1-9.83,18.83l-20.83,36.62A6.73,6.73,0,0,0,117.27,300a6.75,6.75,0,0,0,5.86-3.41L144,260c4.51-7.92,9.17-16.12,12.49-25.09a108,108,0,0,0,5.93-26.62,30.15,30.15,0,0,0,8.11.93,82.62,82.62,0,0,0,14.42-1.5c10.77-2.06,19.58-7.79,24.16-15.72a36.73,36.73,0,0,0,4.14-12.16c.09-.49.17-1,.25-1.48a24.38,24.38,0,0,1,1.24-5.27c1.39-3.43,4.46-6,8.23-8.44a12.69,12.69,0,0,1,2-.79A3.11,3.11,0,0,0,227.18,160.05ZM144.27,52.86A30.39,30.39,0,0,0,140,60.42c-.34.9-1.19,3.61-2.06,7.16q-2-4.76-4.06-9.46Q139.06,55.54,144.27,52.86ZM109.88,73a32.51,32.51,0,0,0-8,1,55.37,55.37,0,0,0,8.34-3.34c4-1.87,7.94-3.8,11.9-5.75q2.94,6.67,5.59,13.47A97.31,97.31,0,0,0,117.16,74,26.08,26.08,0,0,0,109.88,73Zm10.58,33.6h-.12c4.9-2.3,9.84-4.71,14.74-7.16q2,6.38,3.71,12.82a98,98,0,0,0-11-4.66A25.82,25.82,0,0,0,120.46,106.61Zm12,37.6a26.2,26.2,0,0,0-7.29-1c-.49,0-1,0-1.48,0a64.56,64.56,0,0,0,7.12-3q6.54-3.09,13.05-6.33,1.6,8.25,2.79,16.57A96.27,96.27,0,0,0,132.41,144.21Zm16.42-45.9c-.31-1-.62-2-.94-3.07l3.61-1.8A24.39,24.39,0,0,0,148.83,98.31Z" fill="#fff"/><path d="M89,7.23a4.8,4.8,0,0,1,.79-2.08,4.73,4.73,0,0,1,1.84-1.29c6.52-3,15.16-1.62,19.43,4.13,2.08,2.8,3,6.27,3.79,9.66q1.77,7.37,3.35,14.79c2,9.3-17.31-.93-20.76-3.35C91,24.56,87.58,14.85,89,7.23Z" fill="#8b5dbf"/><path d="M118.35,40.18a.6.6,0,0,1-.55-.36l-2.56-6a41.1,41.1,0,0,0-2.18-4.54,40.36,40.36,0,0,0-6.49-7.64L105,20.08c-2.78-2.84-5.77-6.31-6.9-10.55a.6.6,0,0,1,.43-.73.59.59,0,0,1,.73.42c1.06,4,3.93,7.29,6.6,10l1.57,1.58a41,41,0,0,1,6.67,7.88,40.91,40.91,0,0,1,2.25,4.68l2.56,6a.61.61,0,0,1-.31.79A.67.67,0,0,1,118.35,40.18Z" fill="#7f3f98"/><path d="M171.56,40.47a7.16,7.16,0,0,1,3.32.38,7.27,7.27,0,0,1,2.54,2.21c6.7,8.37,7.92,21.41,1.14,29.72-3.3,4-8,6.61-12.64,9q-10,5.3-20.24,10.3c-12.78,6.27-5-25.48-2.76-31.37C147.13,49.69,160,41.19,171.56,40.47Z" fill="#8b5dbf"/><path d="M98,119a4.9,4.9,0,0,0-1.27,5.4c2.28,9,10.65,16.64,19.93,16.29,4.51-.18,8.75-2.09,12.84-4q8.88-4.19,17.66-8.61c11-5.55-15-16.74-20.23-18.26C117.09,107,104.51,111.4,98,119Z" fill="#8b5dbf"/><path d="M156.16,4a7.16,7.16,0,0,1,3.32.38A7,7,0,0,1,162,6.62C168.72,15,170,28,163.16,36.33c-3.3,4-8,6.62-12.63,9.05q-10,5.28-20.25,10.29c-12.77,6.27-5-25.48-2.75-31.37C131.73,13.24,144.58,4.74,156.16,4Z" fill="#8b5dbf"/><path d="M77.46,49.45A6,6,0,0,0,76,51.94a6.09,6.09,0,0,0,.2,2.9c2.28,9,10.65,16.64,19.93,16.29,4.51-.17,8.75-2.09,12.83-4q8.89-4.19,17.67-8.62c11-5.55-15-16.73-20.23-18.26C96.56,37.38,84,41.82,77.46,49.45Z" fill="#8b5dbf"/><path d="M87.41,85.43a6.26,6.26,0,0,0-1.47,2.49,6.09,6.09,0,0,0,.2,2.9c2.29,9,10.66,16.64,19.93,16.29,4.51-.17,8.75-2.09,12.84-4q8.9-4.18,17.66-8.62c11-5.55-15-16.73-20.22-18.26C106.51,73.36,93.94,77.8,87.41,85.43Z" fill="#8b5dbf"/><path d="M102.65,155.62a6.33,6.33,0,0,0-1.47,2.49,6.26,6.26,0,0,0,.2,2.91c2.29,9,10.66,16.64,19.93,16.29,4.52-.18,8.76-2.09,12.84-4q8.9-4.19,17.67-8.62c11-5.55-15-16.74-20.23-18.26C121.76,143.56,109.18,148,102.65,155.62Z" fill="#8b5dbf"/><path d="M175.49,82.25a6.22,6.22,0,0,1,2.78.32,6,6,0,0,1,2.12,1.85c5.61,7,6.63,17.91,1,24.86-2.76,3.38-6.71,5.53-10.57,7.56q-8.42,4.43-16.94,8.62c-10.68,5.24-4.18-21.32-2.3-26.24C155.06,90,165.81,82.85,175.49,82.25Z" fill="#8b5dbf"/><path d="M180.69,122.07a4.5,4.5,0,0,1,4.65,2.05c5.32,6.64,6.28,17,.91,23.57-2.62,3.2-6.37,5.25-10,7.17q-8,4.2-16.05,8.17c-10.13,5-4-20.21-2.19-24.88C161.32,129.38,171.51,122.63,180.69,122.07Z" fill="#8b5dbf"/><path d="M155.63,162.24a.6.6,0,0,1-.6-.54,16.7,16.7,0,0,1,1.1-8.8c1.66-3.55,5-5.86,7.41-7.28.91-.55,1.84-1.06,2.77-1.58a40,40,0,0,0,5.86-3.68,19.69,19.69,0,0,0,7.05-12.4.6.6,0,1,1,1.19.17,20.93,20.93,0,0,1-7.49,13.16,39.84,39.84,0,0,1-6,3.8c-.92.51-1.84,1-2.73,1.56-3.58,2.14-5.79,4.28-6.94,6.76a15.61,15.61,0,0,0-1,8.18.59.59,0,0,1-.54.65Z" fill="#7f3f98"/><path d="M156.36,163.15a.66.66,0,0,1-.27-.06c-5.32-2.64-11.42-2.94-16.69-2.87a112.64,112.64,0,0,0-18.06,1.67.6.6,0,0,1-.7-.48.6.6,0,0,1,.49-.7A114,114,0,0,1,139.38,159c5.42-.06,11.69.24,17.24,3a.59.59,0,0,1,.27.8A.58.58,0,0,1,156.36,163.15Z" fill="#7f3f98"/><path d="M150.28,126.68h-.06a.6.6,0,0,1-.53-.66c.41-3.7,1.9-7.11,3.35-10.4a28.39,28.39,0,0,1,3.76-6.78c2.16-2.61,5.14-4.36,8-5.93l.44-.24a40.45,40.45,0,0,0,3.9-2.32,19.43,19.43,0,0,0,7.13-9.54.6.6,0,0,1,.76-.38.61.61,0,0,1,.38.76,20.64,20.64,0,0,1-7.58,10.14,40.21,40.21,0,0,1-4,2.4l-.44.23c-2.76,1.52-5.63,3.2-7.65,5.64a27.28,27.28,0,0,0-3.59,6.5c-1.41,3.21-2.87,6.54-3.26,10.05A.59.59,0,0,1,150.28,126.68Z" fill="#7f3f98"/><path d="M151.16,127.29a.59.59,0,0,1-.29-.07c-5.87-3.26-12.73-3.55-20.43-3.58-3.11,0-6.8,0-10.54.07-2.86.06-5.6.23-7.76,1.64a.61.61,0,0,1-.83-.17.6.6,0,0,1,.18-.83c2.42-1.58,5.35-1.77,8.39-1.84,3.75-.08,7.44-.08,10.56-.07,7.87,0,14.89.33,21,3.73a.6.6,0,0,1-.29,1.12Z" fill="#7f3f98"/><path d="M141.29,94h0a.6.6,0,0,1-.56-.64c.41-5.86,2.53-12,6.5-18.76a24.67,24.67,0,0,1,4.68-6.13,29.33,29.33,0,0,1,6.28-3.92,40.66,40.66,0,0,0,4.5-2.55,19.78,19.78,0,0,0,8.09-12.65.6.6,0,0,1,.7-.49.59.59,0,0,1,.48.69A20.68,20.68,0,0,1,163.33,63a42.59,42.59,0,0,1-4.63,2.63,27.46,27.46,0,0,0-6,3.75,23.74,23.74,0,0,0-4.45,5.84c-3.87,6.6-5.94,12.57-6.33,18.24A.6.6,0,0,1,141.29,94Z" fill="#7f3f98"/><path d="M140.83,94.86a.61.61,0,0,1-.56-.37c-.71-1.73-2.86-2.41-4.82-2.92l-4.1-1.06a22.31,22.31,0,0,0-6.15-1,22,22,0,0,0-5.77,1.28c-.71.22-1.42.45-2.13.65a31.72,31.72,0,0,1-13.67.72.6.6,0,0,1-.5-.69.61.61,0,0,1,.69-.49A30.46,30.46,0,0,0,117,90.3c.7-.19,1.39-.41,2.09-.63a23.18,23.18,0,0,1,6.09-1.34,23.22,23.22,0,0,1,6.49,1l4.1,1.06c2.4.62,4.75,1.49,5.63,3.62a.6.6,0,0,1-.32.78A.64.64,0,0,1,140.83,94.86Z" fill="#7f3f98"/><path d="M125.87,57.26a.59.59,0,0,1-.23,0,.61.61,0,0,1-.33-.79l1.32-3.17c.76-1.83,1.51-3.65,2.28-5.47a20.64,20.64,0,0,1,3.42-6,20.79,20.79,0,0,1,5.17-3.74c.66-.38,1.32-.76,2-1.17,5.41-3.41,9.18-8.76,10.1-14.31a.6.6,0,1,1,1.19.19c-1,5.89-5,11.54-10.65,15.14-.65.41-1.33.8-2,1.19a19.56,19.56,0,0,0-4.89,3.51A19,19,0,0,0,130,48.26q-1.16,2.73-2.28,5.46l-1.32,3.17A.59.59,0,0,1,125.87,57.26Z" fill="#7f3f98"/><path d="M128.78,56.47a.54.54,0,0,1-.41-.17c-2.7-2.6-5.38-5-8.67-5.53a18.25,18.25,0,0,0-4.43,0L94.13,52.74A.6.6,0,1,1,94,51.55l21.14-1.94a18.71,18.71,0,0,1,4.73,0c3.63.59,6.48,3.11,9.31,5.85a.6.6,0,0,1,0,.85A.58.58,0,0,1,128.78,56.47Z" fill="#7f3f98"/><path d="M167.3,177.25c2.52-3.57,5.29-7.07,9-9.42,8-5.08,18.23-3.7,27.68-4.17a66.36,66.36,0,0,0,20.16-4.21c-4.89,3-10.08,6.34-12.24,11.64a35.66,35.66,0,0,0-1.67,7.39,33.9,33.9,0,0,1-3.77,11.15c-4.52,7.81-13.19,12.52-22.05,14.22-5.37,1-23,3.72-25.68-2.7C155.73,194,163.5,182.65,167.3,177.25Z" fill="#76bf28"/><path d="M156.81,202.91l-1.18-.22a10.59,10.59,0,0,1,2.5-4.83,22.47,22.47,0,0,1,5.34-4.72c3.47-2.2,7.45-3.41,11.3-4.57a47.4,47.4,0,0,0,10.36-4,47.72,47.72,0,0,0,8.62-7.13l1.95-1.88c3.28-3.09,23.36-15.46,28.22-16.68l.29,1.16c-4.27,1.07-24.2,13.11-27.68,16.39l-1.95,1.87a48.36,48.36,0,0,1-8.85,7.31,48.27,48.27,0,0,1-10.62,4.15c-3.77,1.14-7.67,2.32-11,4.43a21.78,21.78,0,0,0-5.06,4.47A9.43,9.43,0,0,0,156.81,202.91Z" fill="#469d12"/><path d="M145.51,202.55c-2.51-3.57-5.29-7.07-9-9.42-8-5.08-18.24-3.7-27.69-4.17a66.23,66.23,0,0,1-20.15-4.21c4.88,3,10.07,6.34,12.23,11.64a35.68,35.68,0,0,1,1.68,7.39,33.88,33.88,0,0,0,3.76,11.15c4.52,7.81,13.19,12.52,22,14.22,5.37,1,23,3.72,25.68-2.7C157.08,219.32,149.32,208,145.51,202.55Z" fill="#76bf28"/><path d="M153.13,227.61a18.22,18.22,0,0,0-1.33-1.78,39.53,39.53,0,0,0-8.45-7,49.1,49.1,0,0,0-9.59-5.24c-1.18-.44-2.43-.8-3.64-1.15a43,43,0,0,1-4.87-1.65c-5.13-2.2-9.08-6.27-12.89-10.2a69.93,69.93,0,0,0-7.45-7c-4.21-3.19-9.13-5.33-13.87-7.39l-.73-.31-9.73-4.24.48-1.1,9.73,4.24.72.31c4.82,2.09,9.8,4.26,14.13,7.54a70.48,70.48,0,0,1,7.58,7.07c3.9,4,7.59,7.83,12.51,9.94a39.81,39.81,0,0,0,4.73,1.59c1.23.36,2.5.73,3.72,1.19a49.5,49.5,0,0,1,9.83,5.36,40.63,40.63,0,0,1,8.7,7.18,19.32,19.32,0,0,1,1.43,1.91Z" fill="#469d12"/><path d="M117.32,296a3.5,3.5,0,0,1-3-5.23l20.83-36.62c4.3-7.57,8.76-15.41,11.79-23.59,6.48-17.49,6.5-36.65,5.79-51.39a327.24,327.24,0,0,0-43.16-147,3.5,3.5,0,0,1,6.07-3.5,334.29,334.29,0,0,1,44.08,150.22c.74,15.4.71,35.48-6.21,54.15-3.23,8.72-7.83,16.81-12.28,24.62l-20.83,36.62A3.5,3.5,0,0,1,117.32,296Z" fill="#76bf28"/></svg>